<svg xmlns="http://www.w3.org/2000/svg" width="30.22" height="22.438" viewBox="0 0 30.22 22.438">
  <path id="icons8-youtube" d="M18.007,9a63.321,63.321,0,0,0-11.29.841,3.892,3.892,0,0,0-3.155,3.016A45.594,45.594,0,0,0,3,20.219a38.162,38.162,0,0,0,.63,7.362A3.991,3.991,0,0,0,6.785,30.6a64.526,64.526,0,0,0,11.29.841A64.468,64.468,0,0,0,29.363,30.6a3.888,3.888,0,0,0,3.155-3.016,52.96,52.96,0,0,0,.7-7.431,38.025,38.025,0,0,0-.7-7.434A3.983,3.983,0,0,0,29.363,9.7,87.5,87.5,0,0,0,18.007,9Zm0,1.4a69.936,69.936,0,0,1,11.077.77,2.572,2.572,0,0,1,2.032,1.9,38.408,38.408,0,0,1,.7,7.083,51.669,51.669,0,0,1-.7,7.22c-.208,1.331-1.611,1.753-2.032,1.9a64.3,64.3,0,0,1-10.94.838,57.377,57.377,0,0,1-10.937-.838,2.572,2.572,0,0,1-2.032-1.9A27.578,27.578,0,0,1,4.4,20.219a39.038,39.038,0,0,1,.561-7.08C5.175,11.8,6.646,11.383,7,11.243A61.531,61.531,0,0,1,18.007,10.4ZM14.219,14.61V25.829l9.817-5.61ZM15.621,17l5.61,3.224-5.61,3.224Z" transform="translate(-3 -9)" fill="#fbfbfb"/>
</svg>
