<svg xmlns="http://www.w3.org/2000/svg" width="30.852" height="30.852" viewBox="0 0 30.852 30.852">
  <path id="icons8-instagram" d="M12.115,3A9.126,9.126,0,0,0,3,12.115V24.737a9.126,9.126,0,0,0,9.115,9.115H24.737a9.126,9.126,0,0,0,9.115-9.115V12.115A9.126,9.126,0,0,0,24.737,3Zm0,1.4H24.737a7.7,7.7,0,0,1,7.713,7.713V24.737a7.7,7.7,0,0,1-7.713,7.713H12.115A7.7,7.7,0,0,1,4.4,24.737V12.115A7.7,7.7,0,0,1,12.115,4.4ZM26.84,8.61a1.4,1.4,0,1,0,1.4,1.4A1.4,1.4,0,0,0,26.84,8.61Zm-8.414,2.1a7.713,7.713,0,1,0,7.713,7.713A7.724,7.724,0,0,0,18.426,10.713Zm0,1.4a6.311,6.311,0,1,1-6.311,6.311A6.3,6.3,0,0,1,18.426,12.115Z" transform="translate(-3 -3)" fill="#fbfbfb"/>
</svg>
