<svg xmlns="http://www.w3.org/2000/svg" width="35.144" height="28.56" viewBox="0 0 35.144 28.56">
  <path id="icons8-twitter" d="M35.086,9a14.423,14.423,0,0,1-4.144,1.137,7.228,7.228,0,0,0,3.172-3.988,14.478,14.478,0,0,1-4.58,1.747A7.213,7.213,0,0,0,17.249,14.47,20.473,20.473,0,0,1,2.387,6.935a7.226,7.226,0,0,0,2.232,9.63,7.2,7.2,0,0,1-3.268-.9v.09a7.22,7.22,0,0,0,5.782,7.072,7.217,7.217,0,0,1-1.9.252,6.946,6.946,0,0,1-1.359-.131,7.227,7.227,0,0,0,6.735,5.01,14.454,14.454,0,0,1-8.954,3.084,14.185,14.185,0,0,1-1.717-.1,20.372,20.372,0,0,0,11.052,3.24c13.262,0,20.515-10.986,20.515-20.513,0-.312-.008-.627-.019-.934A14.657,14.657,0,0,0,35.086,9Z" transform="translate(0.059 -5.617)" fill="#fbfbfb"/>
</svg>
