<svg xmlns="http://www.w3.org/2000/svg" xmlns:xlink="http://www.w3.org/1999/xlink" width="219.444" height="171.011" viewBox="0 0 219.444 171.011">
  <defs>
    <filter id="Path_2" x="0" y="0" width="219.444" height="171.011" filterUnits="userSpaceOnUse">
      <feOffset dy="3" input="SourceAlpha"/>
      <feGaussianBlur stdDeviation="3" result="blur"/>
      <feFlood flood-opacity="0.161"/>
      <feComposite operator="in" in2="blur"/>
      <feComposite in="SourceGraphic"/>
    </filter>
    <filter id="xgyen" x="79.444" y="68.011" width="82" height="42" filterUnits="userSpaceOnUse">
      <feOffset dy="3" input="SourceAlpha"/>
      <feGaussianBlur stdDeviation="3" result="blur-2"/>
      <feFlood flood-opacity="0.161"/>
      <feComposite operator="in" in2="blur-2"/>
      <feComposite in="SourceGraphic"/>
    </filter>
  </defs>
  <g id="LG-R" transform="translate(66.613 65.674)">
    <g transform="matrix(1, 0, 0, 1, -66.61, -65.67)" filter="url(#Path_2)">
      <path id="Path_2-2" data-name="Path 2" d="M29.979,0a76.506,76.506,0,1,1,0,153.011c-42.253,0-124.938-34.253-124.938-76.506S-12.273,0,29.979,0Z" transform="translate(103.96 6)" fill="#2c2c2c"/>
    </g>
    <g transform="matrix(1, 0, 0, 1, -66.61, -65.67)" filter="url(#xgyen)">
      <text id="xgyen-2" data-name="xgyen" transform="translate(88.44 93.01)" fill="#fbfbfb" font-size="20"  font-family="Montserrat, sans-serif" font-weight="700"><tspan x="0" y="0">xgyen</tspan></text>
    </g>
    <g id="Group_5" data-name="Group 5" transform="translate(-1845.169 -183.573)">
      <g id="LOGO" transform="translate(1849 191.014)">
        <g id="Subtraction_1" data-name="Subtraction 1" transform="translate(0 4.896)" fill="none">
          <path d="M8,16A8,8,0,0,1,2.343,2.343,8.013,8.013,0,0,1,10.437.378c0,.045,0,.093,0,.143a4,4,0,0,0,4,4,4.036,4.036,0,0,0,.738-.068A8,8,0,0,1,8,16Z" stroke="none"/>
          <path d="M 7.999849796295166 14 C 9.602510452270508 14 11.1092700958252 13.37586975097656 12.24258041381836 12.24256992340088 C 13.37586975097656 11.10929012298584 14 9.602529525756836 14 7.999839782714844 C 14 7.482632637023926 13.93619251251221 6.977691650390625 13.80957317352295 6.489284038543701 C 11.30155754089355 6.228532314300537 9.247926712036133 4.416566848754883 8.627317428588867 2.032290697097778 C 8.419755935668945 2.010800838470459 8.210354804992676 2 7.999849796295166 2 C 6.397210121154785 2 4.890500068664551 2.624089956283569 3.757289886474609 3.757260084152222 C 2.624089956283569 4.890490055084229 2 6.397200107574463 2 7.999839782714844 C 2 9.602529525756836 2.624099969863892 11.10931015014648 3.757319927215576 12.24260997772217 C 4.890530109405518 13.37588024139404 6.39723014831543 14 7.999849796295166 14 M 7.999849796295166 16 C 5.86290979385376 16 3.854039907455444 15.16783046722412 2.343070030212402 13.65678977966309 C 0.8321099877357483 12.14571952819824 0 10.13671016693115 0 7.999839782714844 C 0 5.862989902496338 0.8321099877357483 3.854039907455444 2.343070030212402 2.34306001663208 C 3.854039907455444 0.8321300148963928 5.86290979385376 0 7.999849796295166 0 C 8.832110404968262 0 9.652190208435059 0.1272100061178207 10.43727970123291 0.3780800104141235 C 10.43562030792236 0.4231800138950348 10.43472003936768 0.4713299870491028 10.43472003936768 0.5215299725532532 C 10.43472003936768 2.727180004119873 12.2291202545166 4.52161979675293 14.43480014801025 4.52161979675293 C 14.68276977539062 4.52161979675293 14.93103981018066 4.498740196228027 15.17300033569336 4.453609943389893 C 15.72191047668457 5.561759948730469 16 6.754829883575439 16 7.999839782714844 C 16 10.13677024841309 15.16781997680664 12.14577007293701 13.65678024291992 13.65678977966309 C 12.14573001861572 15.16783046722412 10.13671970367432 16 7.999849796295166 16 Z" stroke="none" fill="#fbfbfb"/>
        </g>
        <circle id="Ellipse_6" data-name="Ellipse 6" cx="4.5" cy="4.5" r="4.5" transform="translate(11 -0.104)" fill="#fbfbfb"/>
      </g>
    </g>
  </g>
</svg>
